<?xml version="1.0" encoding="utf-8"?>
<!-- Generator: Adobe Illustrator 27.1.1, SVG Export Plug-In . SVG Version: 6.00 Build 0)  -->
<svg version="1.1" id="Layer_1" xmlns="http://www.w3.org/2000/svg" xmlns:xlink="http://www.w3.org/1999/xlink" x="0px" y="0px"
	 viewBox="0 0 378 86.6" style="enable-background:new 0 0 378 86.6;" xml:space="preserve">
<style type="text/css">
	.st0{fill:#FFFFFF;}
</style>
<path d="M63.9,342.5c0,1.4-0.5,2.5-1.4,3.4c-1,1-2.1,1.4-3.4,1.4h-0.1c-1.3,0-2.4-0.5-3.4-1.4c-1-0.9-1.4-2-1.4-3.4V304
	c0-5.3,1.9-9.9,5.7-13.6c3.8-3.8,8.3-5.7,13.6-5.7c6.4,0,11.2,2.1,14.4,6.3c3.2-4.2,8-6.3,14.4-6.3c5.3,0,9.9,1.9,13.6,5.7
	c3.8,3.8,5.7,8.3,5.7,13.6v38.5c0,1.3-0.5,2.5-1.4,3.4c-1,1-2.1,1.4-3.4,1.4h-0.1c-1.4,0-2.5-0.5-3.4-1.4c-1-0.9-1.4-2-1.4-3.4V304
	c0-2.6-0.9-4.9-2.8-6.7c-1.8-1.8-4.1-2.8-6.7-2.8c-2.6,0-4.9,0.9-6.7,2.8c-1.8,1.8-2.8,4.1-2.8,6.7v38.5c0,1.4-0.5,2.5-1.4,3.4
	c-0.9,1-2,1.4-3.4,1.4h-0.1c-1.3,0-2.5-0.5-3.4-1.4c-1-0.9-1.4-2-1.4-3.4V304c0-2.6-0.9-4.9-2.8-6.7c-1.8-1.8-4.1-2.8-6.7-2.8
	c-2.6,0-4.9,0.9-6.7,2.8c-1.8,1.8-2.8,4.1-2.8,6.7V342.5z"/>
<path d="M107,382.7c0,1.3-0.4,2.3-1.3,3.2c-0.9,0.9-2,1.3-3.2,1.3h-0.1c-1.2,0-2.3-0.4-3.2-1.3c-0.9-0.8-1.3-1.9-1.3-3.2v-11.3
	c0-2.8-1-5.2-2.9-7.2c-2-2-4.4-3-7.2-3c-2.8,0-5.2,1-7.2,3c-2,2-2.9,4.4-2.9,7.2v11.3c0,1.3-0.4,2.3-1.3,3.2c-0.9,0.9-2,1.3-3.2,1.3
	h-0.1c-1.2,0-2.3-0.4-3.2-1.3c-0.9-0.8-1.3-1.9-1.3-3.2v-11.3c0-6.6,2.3-11.5,6.8-14.7c-4.5-3.3-6.8-8.2-6.8-14.7v-8.5
	c0-1.2,0.4-2.3,1.3-3.2c0.9-0.9,2-1.3,3.2-1.3H73c1.2,0,2.3,0.4,3.2,1.3c0.9,0.9,1.3,2,1.3,3.2v8.5c0,2.8,1,5.2,2.9,7.2
	c2,2,4.4,3,7.2,3c2.8,0,5.2-1,7.2-3c2-2,2.9-4.4,2.9-7.2v-8.5c0-1.2,0.4-2.3,1.3-3.2c0.9-0.9,2-1.3,3.2-1.3h0.1
	c1.2,0,2.3,0.4,3.2,1.3c0.9,0.9,1.3,2,1.3,3.2v8.5c0,6.6-2.3,11.5-6.8,14.7c4.5,3.3,6.8,8.2,6.8,14.7V382.7z"/>
<path d="M200.5,379.1c0,2.3-0.8,4.2-2.4,5.7c-1.6,1.6-3.5,2.4-5.7,2.4h-0.2c-2.2,0-4.1-0.8-5.7-2.4c-1.6-1.5-2.4-3.4-2.4-5.7v-61.9
	c0-5-1.8-9.4-5.3-12.9c-3.6-3.6-7.9-5.4-13-5.4c-5,0-9.4,1.8-12.9,5.4c-3.5,3.6-5.3,7.9-5.3,12.9v61.9c0,2.3-0.8,4.2-2.4,5.7
	c-1.6,1.6-3.5,2.4-5.7,2.4h-0.2c-2.2,0-4.1-0.8-5.7-2.4c-1.6-1.5-2.4-3.4-2.4-5.7v-61.9c0-9.6,3.4-17.7,10.2-24.5
	c6.8-6.7,14.9-10.1,24.4-10.1c9.6,0,17.7,3.4,24.5,10.1c6.8,6.8,10.2,15,10.2,24.5V379.1z"/>
<path d="M275.7,290.8c0,2.2-0.8,4.2-2.4,5.8c-1.6,1.6-3.5,2.3-5.7,2.3h-16.3v80.2c0,2.2-0.8,4.1-2.3,5.7c-1.6,1.6-3.5,2.4-5.8,2.4
	H243c-2.2,0-4.2-0.8-5.8-2.4c-1.6-1.6-2.3-3.5-2.3-5.7v-80.2h-16.3c-2.2,0-4.1-0.8-5.7-2.3c-1.6-1.6-2.4-3.5-2.4-5.8v-0.1
	c0-2.2,0.8-4.2,2.4-5.8c1.6-1.6,3.5-2.3,5.7-2.3h49c2.2,0,4.1,0.8,5.7,2.3c1.6,1.6,2.4,3.5,2.4,5.8V290.8z"/>
<path d="M361.7,379.1c0,2.3-0.8,4.2-2.4,5.7c-1.6,1.6-3.5,2.4-5.7,2.4h-0.2c-2.2,0-4.1-0.8-5.7-2.4c-1.6-1.5-2.4-3.4-2.4-5.7v-20.3
	c0-5-1.8-9.4-5.3-12.9c-3.6-3.6-7.9-5.4-13-5.4c-5,0-9.4,1.8-12.9,5.4c-3.5,3.6-5.3,7.9-5.3,12.9v20.3c0,2.3-0.8,4.2-2.4,5.7
	c-1.6,1.6-3.5,2.4-5.7,2.4h-0.2c-2.2,0-4.1-0.8-5.7-2.4c-1.6-1.5-2.4-3.4-2.4-5.7v-20.3c0-11.8,4-20.6,12.1-26.5
	c-8.1-5.8-12.1-14.7-12.1-26.4v-15.2c0-2.2,0.8-4.2,2.4-5.8c1.6-1.6,3.5-2.3,5.7-2.3h0.2c2.2,0,4.1,0.8,5.7,2.3
	c1.6,1.6,2.4,3.5,2.4,5.8v15.2c0,5,1.8,9.4,5.3,12.9c3.6,3.6,7.9,5.4,12.9,5.4c5.1,0,9.4-1.8,13-5.4c3.5-3.6,5.3-7.9,5.3-12.9v-15.2
	c0-2.2,0.8-4.2,2.4-5.8c1.6-1.6,3.5-2.3,5.7-2.3h0.2c2.2,0,4.1,0.8,5.7,2.3c1.6,1.6,2.4,3.5,2.4,5.8v15.2c0,11.8-4,20.6-12.1,26.4
	c8.1,5.9,12.1,14.7,12.1,26.5V379.1z"/>
<g>
	<path class="st0" d="M70.6,49.5c0,1.1-0.4,2.1-1.2,2.8c-0.8,0.8-1.7,1.2-2.8,1.2h-0.1c-1.1,0-2-0.4-2.8-1.2
		c-0.8-0.7-1.2-1.7-1.2-2.8V17.9c0-4.4,1.6-8.1,4.6-11.2C70.3,3.5,74,2,78.4,2c5.2,0,9.2,1.7,11.8,5.2C92.8,3.7,96.8,2,102,2
		c4.4,0,8.1,1.5,11.2,4.6c3.1,3.1,4.6,6.8,4.6,11.2v31.7c0,1.1-0.4,2-1.2,2.8c-0.8,0.8-1.7,1.2-2.8,1.2h-0.1c-1.1,0-2.1-0.4-2.8-1.2
		c-0.8-0.7-1.2-1.7-1.2-2.8V17.9c0-2.2-0.8-4-2.3-5.5c-1.5-1.5-3.4-2.3-5.5-2.3c-2.2,0-4,0.8-5.5,2.3c-1.5,1.5-2.3,3.4-2.3,5.5v31.7
		c0,1.1-0.4,2.1-1.2,2.8c-0.7,0.8-1.7,1.2-2.8,1.2h-0.1c-1.1,0-2-0.4-2.8-1.2c-0.8-0.7-1.2-1.7-1.2-2.8V17.9c0-2.2-0.8-4-2.3-5.5
		c-1.5-1.5-3.4-2.3-5.5-2.3c-2.2,0-4,0.8-5.5,2.3c-1.5,1.5-2.3,3.4-2.3,5.5V49.5z"/>
	<path class="st0" d="M106.1,82.6c0,1-0.4,1.9-1.1,2.6c-0.7,0.7-1.6,1.1-2.6,1.1h-0.1c-1,0-1.9-0.4-2.6-1.1
		c-0.7-0.7-1.1-1.6-1.1-2.6v-9.3c0-2.3-0.8-4.3-2.4-5.9c-1.6-1.6-3.6-2.5-6-2.5c-2.3,0-4.3,0.8-5.9,2.5c-1.6,1.6-2.4,3.6-2.4,5.9
		v9.3c0,1-0.4,1.9-1.1,2.6c-0.7,0.7-1.6,1.1-2.6,1.1H78c-1,0-1.9-0.4-2.6-1.1c-0.7-0.7-1.1-1.6-1.1-2.6v-9.3c0-5.4,1.9-9.4,5.6-12.1
		c-3.7-2.7-5.6-6.7-5.6-12.1v-7c0-1,0.4-1.9,1.1-2.6c0.7-0.7,1.6-1.1,2.6-1.1h0.1c1,0,1.9,0.4,2.6,1.1c0.7,0.7,1.1,1.6,1.1,2.6v7
		c0,2.3,0.8,4.3,2.4,5.9c1.6,1.6,3.6,2.5,5.9,2.5c2.3,0,4.3-0.8,6-2.5c1.6-1.6,2.4-3.6,2.4-5.9v-7c0-1,0.4-1.9,1.1-2.6
		c0.7-0.7,1.6-1.1,2.6-1.1h0.1c1,0,1.9,0.4,2.6,1.1c0.7,0.7,1.1,1.6,1.1,2.6v7c0,5.4-1.9,9.4-5.6,12.1c3.7,2.7,5.6,6.7,5.6,12.1
		V82.6z"/>
	<path class="st0" d="M182.9,79.6c0,1.9-0.7,3.4-2,4.7c-1.3,1.3-2.9,2-4.7,2h-0.2c-1.8,0-3.4-0.7-4.7-2c-1.3-1.2-2-2.8-2-4.7V28.8
		c0-4.1-1.5-7.7-4.3-10.6c-2.9-2.9-6.5-4.4-10.7-4.4c-4.1,0-7.7,1.5-10.6,4.4c-2.9,2.9-4.4,6.5-4.4,10.6v50.9c0,1.9-0.7,3.4-2,4.7
		c-1.3,1.3-2.9,2-4.7,2h-0.2c-1.8,0-3.4-0.7-4.7-2c-1.3-1.2-2-2.8-2-4.7V28.8c0-7.9,2.8-14.6,8.4-20.2c5.6-5.5,12.3-8.3,20.1-8.3
		c7.9,0,14.6,2.8,20.2,8.3c5.6,5.6,8.4,12.3,8.4,20.2V79.6z"/>
	<path class="st0" d="M244.8,7.1c0,1.8-0.7,3.4-2,4.7c-1.3,1.3-2.8,1.9-4.7,1.9h-13.4v65.9c0,1.8-0.6,3.4-1.9,4.7
		c-1.3,1.3-2.9,2-4.7,2h-0.1c-1.8,0-3.4-0.7-4.7-2c-1.3-1.3-1.9-2.8-1.9-4.7V13.7h-13.4c-1.8,0-3.4-0.6-4.7-1.9
		c-1.3-1.3-2-2.9-2-4.7V7c0-1.8,0.7-3.4,2-4.7c1.3-1.3,2.9-1.9,4.7-1.9h40.3c1.8,0,3.4,0.6,4.7,1.9c1.3,1.3,2,2.9,2,4.7V7.1z"/>
	<path class="st0" d="M315.5,79.6c0,1.9-0.7,3.4-2,4.7c-1.3,1.3-2.9,2-4.7,2h-0.2c-1.8,0-3.4-0.7-4.7-2c-1.3-1.2-2-2.8-2-4.7V62.9
		c0-4.1-1.5-7.7-4.3-10.6c-2.9-2.9-6.5-4.4-10.7-4.4c-4.1,0-7.7,1.5-10.6,4.4c-2.9,2.9-4.3,6.5-4.3,10.6v16.7c0,1.9-0.7,3.4-2,4.7
		c-1.3,1.3-2.9,2-4.7,2h-0.2c-1.8,0-3.4-0.7-4.7-2c-1.3-1.2-2-2.8-2-4.7V62.9c0-9.7,3.3-16.9,10-21.7c-6.6-4.8-10-12.1-10-21.7V7
		c0-1.8,0.7-3.4,2-4.7c1.3-1.3,2.9-1.9,4.7-1.9h0.2c1.8,0,3.4,0.6,4.7,1.9c1.3,1.3,2,2.9,2,4.7v12.5c0,4.1,1.4,7.7,4.3,10.6
		c2.9,2.9,6.5,4.4,10.6,4.4c4.2,0,7.7-1.5,10.7-4.4c2.9-2.9,4.3-6.5,4.3-10.6V7c0-1.8,0.7-3.4,2-4.7c1.3-1.3,2.9-1.9,4.7-1.9h0.2
		c1.8,0,3.4,0.6,4.7,1.9c1.3,1.3,2,2.9,2,4.7v12.5c0,9.7-3.3,16.9-10,21.7c6.6,4.8,10,12.1,10,21.7V79.6z"/>
</g>
</svg>
